Coordinates
version=1
nRows=10
nColumns=34
inDegrees=yes

Units are S.I. units (second, meters, Newtons, ...)
If the header above contains a line with 'inDegrees', this indicates whether rotational values are in degrees (yes) or radians (no).

endheader
time	pelvis_tilt	pelvis_list	pelvis_rotation	pelvis_tx	pelvis_ty	pelvis_tz	hip_flexion_r	hip_adduction_r	hip_rotation_r	knee_angle_r	ankle_angle_r	subtalar_angle_r	mtp_angle_r	hip_flexion_l	hip_adduction_l	hip_rotation_l	knee_angle_l	ankle_angle_l	subtalar_angle_l	mtp_angle_l	lumbar_extension	lumbar_bending	lumbar_rotation	arm_flex_r	arm_add_r	arm_rot_r	elbow_flex_r	pro_sup_r	arm_flex_l	arm_add_l	arm_rot_l	elbow_flex_l	pro_sup_l
      0.00000000	     -5.69643338	     -0.30967632	     -4.53963453	      0.46611591	      0.98958930	     -0.10614378	      5.25759683	      1.55510314	     -1.26658107	      5.63354453	      6.42092682	    -10.40287990	      0.00000000	      6.97084843	     -6.22022270	     -4.79851531	      9.16000566	      4.72156440	    -10.57133326	      0.00000000	      0.71969167	      2.72847107	     -3.82168972	     57.19503312	      6.47882919	     65.24898230	    119.25322496	    110.83322877	     48.26261451	      4.65232675	     61.65806738	    115.37202384	     89.61103229
      0.01666670	     -6.66792610	     -0.40136672	     -5.42661960	      0.46524803	      0.98405532	     -0.11000354	      6.51599662	      1.75971223	     -0.07500292	      6.08916564	      8.37613472	     -9.42658641	      0.00000000	      7.43089445	     -6.11137434	     -5.93141603	      8.26736842	      4.35877924	    -10.48647438	      0.00000000	      1.35349970	      3.08110361	     -3.11880578	     61.75328993	      6.26247217	     65.64467526	    120.67983659	    110.34284510	     50.24051900	      3.66700099	     61.05364133	    118.92567062	     89.68972636
      0.03333330	     -7.57061463	     -0.26112548	     -6.09350762	      0.46558591	      0.98625102	     -0.11320409	      7.51219777	      1.70768054	     -0.33861913	      6.04723693	      7.88502538	     -9.52231835	      0.00000000	      8.35966293	     -5.93129981	     -7.11779468	      8.20903974	      4.19659430	    -10.66090685	      0.00000000	      2.57361910	      2.88621656	     -2.59587057	     62.20939000	      5.94898495	     67.06610981	    121.55620190	    109.91557153	     50.38754697	      2.72865427	     62.04821560	    121.21388768	     89.48076036
      0.05000000	     -7.88444852	     -0.04762499	     -6.44561792	      0.46112299	      0.98865194	     -0.11525798	      8.20288618	      1.40358711	     -0.00875432	      6.21641313	      7.71232678	     -9.55849485	      0.00000000	      8.53148968	     -5.58451522	     -7.73396870	      7.50327981	      3.61858147	    -10.54575243	      0.00000000	      3.01525738	      2.49101153	     -2.24134698	     62.23236744	      5.51186437	     69.23604857	    121.25187643	    109.45668416	     50.49196698	      2.42526624	     62.98060020	    121.00987619	     88.98067718
      0.06666670	     -8.36613370	      0.10632788	     -6.43728353	      0.46694068	      0.98794553	     -0.12036098	      8.75078171	      1.08887165	      0.10522635	      6.08172423	      7.29788480	     -9.76048054	      0.00000000	      8.65955568	     -5.21433237	     -8.20679305	      6.80854260	      3.69573207	     -9.90413647	      0.00000000	      3.79722069	      2.46350762	     -1.90376209	     61.78173271	      4.68615193	     71.03838770	    121.06857429	    108.62847874	     49.93403610	      2.30041939	     62.79414987	    120.62389237	     87.87829628
      0.08333330	     -8.35496740	      0.12090226	     -6.24214267	      0.46778824	      0.98610450	     -0.12460318	      8.86679755	      0.77514824	      0.19900779	      6.34707653	      7.40768582	     -9.83712602	      0.00000000	      8.37164612	     -4.86923247	     -8.21136409	      6.27667707	      3.93680930	     -9.80035013	      0.00000000	      3.91651130	      2.29182048	     -2.06164431	     61.33210959	      4.31366361	     71.50599609	    120.97672400	    108.52829391	     49.62392322	      2.49253770	     62.93121907	    120.92241758	     87.74224547
      0.10000000	     -8.63454233	      0.28995257	     -6.20662509	      0.47129851	      0.98757399	     -0.12787345	      9.31223922	      0.31096473	      0.54672274	      6.79974226	      7.17806629	    -10.18270977	      0.00000000	      8.34147552	     -4.47280184	     -8.98888984	      5.85053260	      4.41293716	     -8.16887932	      0.00000000	      4.40706875	      2.27311850	     -2.18443371	     61.20110009	      4.36100144	     72.77066118	    120.73329723	    107.43962776	     48.90823646	      2.21257861	     63.12450989	    121.47696116	     86.48831798
      0.11666670	     -8.57304258	      0.20498112	     -6.03781069	      0.47127061	      0.98666236	     -0.13221661	      9.49141324	      0.05904748	      0.69673785	      7.46545089	      7.11465796	    -10.17855663	      0.00000000	      7.95691941	     -4.23015329	     -8.81926957	      5.39084427	      4.56969722	     -8.04355420	      0.00000000	      4.34950358	      2.27328635	     -2.43503519	     60.99766379	      4.12538499	     72.80253872	    120.62719678	    107.34657224	     48.62645915	      2.30281574	     63.24645018	    121.61501680	     86.40963072
      0.13333330	     -8.50382991	      0.27830864	     -6.01048052	      0.47320152	      0.99134284	     -0.13769456	      9.59787421	     -0.41325816	      0.68079460	      8.11326264	      6.88883134	    -10.24954606	      0.00000000	      7.39775420	     -3.81052878	     -8.84912862	      4.63483873	      4.39726214	     -7.63355659	      0.00000000	      4.25519452	      2.30981369	     -2.69490248	     60.47348147	      3.97214382	     73.03911346	    120.42005321	    107.16274052	     47.96499090	      2.02863642	     63.54051776	    121.27489457	     86.26482859
      0.15000000	     -8.47606524	      0.13917668	     -5.92727536	      0.46992984	      0.99135168	     -0.14018220	      9.93077094	     -0.59029753	      0.83686695	      8.91412407	      6.60055452	    -10.16561272	      0.00000000	      7.09867777	     -3.66001668	     -8.90882688	      4.09855173	      4.28413108	     -7.39366743	      0.00000000	      4.05016053	      2.36816388	     -2.97976047	     60.29047341	      3.83296839	     73.07427618	    120.26199620	    107.05662664	     47.76281887	      2.04830549	     63.74084170	    121.26853381	     86.20361329
